<?xml version="1.0" encoding="UTF-8" standalone="no"?>
<!-- Created with Inkscape (http://www.inkscape.org/) -->

<svg
   width="132.29166mm"
   height="132.29167mm"
   viewBox="0 0 132.29166 132.29167"
   version="1.1"
   id="svg1"
   xml:space="preserve"
   inkscape:export-filename="pokebola.png"
   inkscape:export-xdpi="48.000004"
   inkscape:export-ydpi="48.000004"
   xmlns:inkscape="http://www.inkscape.org/namespaces/inkscape"
   xmlns:sodipodi="http://sodipodi.sourceforge.net/DTD/sodipodi-0.dtd"
   xmlns="http://www.w3.org/2000/svg"
   xmlns:svg="http://www.w3.org/2000/svg"><sodipodi:namedview
     id="namedview1"
     pagecolor="#ffffff"
     bordercolor="#000000"
     borderopacity="0.25"
     inkscape:showpageshadow="2"
     inkscape:pageopacity="0.0"
     inkscape:pagecheckerboard="0"
     inkscape:deskcolor="#d1d1d1"
     inkscape:document-units="mm"
     inkscape:zoom="2.3839226"
     inkscape:cx="273.28908"
     inkscape:cy="755.26782"
     inkscape:window-width="1600"
     inkscape:window-height="847"
     inkscape:window-x="1352"
     inkscape:window-y="-8"
     inkscape:window-maximized="1"
     inkscape:current-layer="layer1" /><defs
     id="defs1" /><g
     inkscape:label="Camada 1"
     inkscape:groupmode="layer"
     id="layer1"
     transform="translate(-51.431669,-52.916666)"><path
       id="path1"
       style="opacity:0.7;fill:#000000;stroke:#32329b;stroke-width:0;stroke-linecap:round;stroke-linejoin:round;stroke-dasharray:none;paint-order:stroke fill markers"
       d="m 117.71046,67.128485 c -28.097959,-1.58e-4 -50.876082,22.854848 -50.876478,51.048245 -2.22e-4,28.19379 22.778072,51.04953 50.876478,51.04938 28.09795,-4.9e-4 50.8756,-22.85602 50.87533,-51.04938 -3.9e-4,-28.192938 -22.77783,-51.047761 -50.87533,-51.048245 z m -0.0866,35.932605 c 8.49131,9e-5 15.37484,6.84492 15.37497,15.28854 -1.3e-4,8.44358 -6.88368,15.28846 -15.37497,15.28855 -8.4913,-9e-5 -15.37483,-6.84497 -15.37498,-15.28855 1e-4,-8.44362 6.88368,-15.28845 15.37498,-15.28854 z m 26.93239,3.20902 a 3.5425211,3.4203652 0 0 0 -0.007,0.0252 8.4287565,4.641924 0 0 0 -0.0397,8.8e-4 z"
       inkscape:export-filename="pokebola.png"
       inkscape:export-xdpi="96"
       inkscape:export-ydpi="96" /><path
       style="opacity:0.7;fill:#ed1b24;fill-opacity:1;stroke:#32329b;stroke-width:0;stroke-linecap:round;stroke-linejoin:round;stroke-dasharray:none;paint-order:stroke fill markers"
       d="M 76.263701,137.46872 96.99425,125.54863 c -0.885841,-6.22803 -0.35421,-14.91898 3.40213,-20.83943 3.80277,-5.993568 11.29494,-9.387264 19.30149,-8.324118 5.91375,0.785263 10.68857,4.748068 14.43862,7.741988 l 20.9033,-11.401789 c -0.0677,-1.31056 -11.21353,-18.414853 -32.99614,-20.557816 -21.7826,-2.142934 -36.634033,8.616691 -45.779949,24.185643 -9.145912,15.568962 -1.594515,44.304622 0,41.115612 z"
       id="path2"
       sodipodi:nodetypes="ccsscczzc" /><path
       style="opacity:0.7;fill:#ffffff;fill-opacity:1;stroke:#32329b;stroke-width:0;stroke-linecap:round;stroke-linejoin:round;stroke-dasharray:none;paint-order:stroke fill markers"
       d="m 158.77691,98.576212 -20.73057,11.920038 c 0.88586,6.22806 0.35423,14.91903 -3.4021,20.83946 -3.80276,5.99356 -11.29493,9.38724 -19.3015,8.3241 -5.91377,-0.78529 -10.68856,-4.74805 -14.4386,-7.74198 l -20.903291,11.40178 c 0.06764,1.31057 11.213472,18.41487 32.996111,20.5578 21.78261,2.14297 36.63405,-8.61669 45.77995,-24.18563 9.1459,-15.56895 1.59452,-44.304627 0,-41.115568 z"
       id="path2-1"
       sodipodi:nodetypes="ccsscczzc" /><ellipse
       style="opacity:0.7;fill:#fffdfd;fill-opacity:1;stroke:#32329b;stroke-width:0;stroke-linecap:round;stroke-linejoin:round;stroke-dasharray:none;paint-order:stroke fill markers"
       id="path27"
       cx="117.61292"
       cy="118.38447"
       rx="15.584143"
       ry="15.363617" /></g></svg>
